<?xml version="1.0" encoding="utf-8"?>
<!-- Generator: Adobe Illustrator 22.0.1, SVG Export Plug-In . SVG Version: 6.00 Build 0)  -->
<svg version="1.1" id="Layer_1" xmlns="http://www.w3.org/2000/svg" xmlns:xlink="http://www.w3.org/1999/xlink" x="0px" y="0px"
	 viewBox="0 0 110 52" style="enable-background:new 0 0 110 52;" xml:space="preserve">
<style type="text/css">
	.st0{fill:none;stroke:#E4E5E7;stroke-width:2;}
	.st1{fill:none;stroke:#E4E5E7;stroke-width:2;stroke-linejoin:round;}
	.st2{font-family:'MyriadPro-Regular';}
	.st3{font-size:12px;}
</style>
<g>
	<g>
		<path class="st0" d="M53.4,3.4h9.7C70.2,3.4,76,9.1,76,16.3s-5.8,12.9-12.9,12.9h-9.7h6.5c6.5,0,10.8,3.2,12.9,9.7
			s4.9,9.7,8.1,9.7"/>
	</g>
	<g>
		<path class="st1" d="M22.6-3.1L6.5,26l16.2,29.1"/>
		<path class="st1" d="M87.4,55.1L103.5,26L87.4-3.1"/>
	</g>
	<line class="st0" x1="25.4" y1="48.6" x2="25.7" y2="3.4"/>
	<line class="st0" x1="48.5" y1="48.6" x2="48.5" y2="3.4"/>
	<line class="st0" x1="36.9" y1="20" x2="48.5" y2="3.4"/>
	<line class="st0" x1="25.7" y1="3.4" x2="36.9" y2="20"/>
</g>
<text transform="matrix(1 0 0 1 48.5293 20)" class="st2 st3">Marouane Bulhilt</text>
</svg>
